<svg width="20" height="20" viewBox="0 0 20 20" fill="none" xmlns="http://www.w3.org/2000/svg">
<path d="M0 0H19.3299V19.3299H0V0Z" fill="#C4C4C4" fill-opacity="0.01"/>
<path d="M17.344 4.62715C16.9917 4.78338 16.626 4.90662 16.2507 4.99585C16.6642 4.60291 16.9751 4.11143 17.1505 3.56285C17.2006 3.40624 17.0305 3.27081 16.8891 3.35466C16.367 3.66433 15.8047 3.89664 15.2176 4.04521C15.1835 4.05383 15.1484 4.0582 15.1131 4.0582C15.0062 4.0582 14.9023 4.01849 14.8205 3.94643C14.1959 3.39595 13.3926 3.09278 12.5586 3.09278C12.1977 3.09278 11.8333 3.14903 11.4756 3.25999C10.3671 3.60379 9.51184 4.51813 9.2435 5.64622C9.14283 6.06936 9.11558 6.49287 9.16243 6.90499C9.16781 6.95235 9.14542 6.9854 9.13162 7.0009C9.10738 7.02808 9.07302 7.04366 9.03733 7.04366C9.03335 7.04366 9.02925 7.04347 9.02519 7.04308C6.59883 6.81765 4.41084 5.6487 2.86425 3.75159C2.78538 3.65482 2.63415 3.66669 2.57129 3.77451C2.26843 4.2941 2.10838 4.88838 2.10838 5.49309C2.10838 6.41985 2.48071 7.29321 3.12745 7.9299C2.85548 7.86541 2.59224 7.76385 2.34772 7.62804C2.22942 7.56232 2.08387 7.64679 2.0822 7.7821C2.06527 9.15885 2.87133 10.3839 4.07883 10.9355C4.05451 10.9361 4.03019 10.9364 4.00584 10.9364C3.81443 10.9364 3.62063 10.9179 3.42988 10.8815C3.29666 10.856 3.18474 10.9824 3.22611 11.1116C3.61804 12.3352 4.6716 13.2371 5.93237 13.4419C4.886 14.1443 3.66749 14.5148 2.39925 14.5148L2.00388 14.5146C1.88206 14.5146 1.77903 14.594 1.74799 14.712C1.71741 14.8282 1.77374 14.9508 1.87762 15.0112C3.30671 15.8429 4.9368 16.2825 6.59237 16.2825C8.04153 16.2825 9.3971 15.9949 10.6215 15.4277C11.7439 14.9078 12.7357 14.1646 13.5695 13.2187C14.3461 12.3375 14.9535 11.3204 15.3746 10.1954C15.776 9.12313 15.9881 7.97896 15.9881 6.88659V6.83455C15.9881 6.65915 16.0674 6.49411 16.2058 6.38177C16.731 5.95535 17.1884 5.45339 17.5651 4.88985C17.6646 4.74104 17.5077 4.55455 17.344 4.62715Z" fill="white"/>
</svg>
