<svg width="20" height="20" viewBox="0 0 20 20" fill="none" xmlns="http://www.w3.org/2000/svg">
<path d="M0 0H19.3299V19.3299H0V0Z" fill="#C4C4C4" fill-opacity="0.01"/>
<path d="M15.7211 4.16807C15.7163 4.15875 15.7083 4.15144 15.6986 4.14746C14.5762 3.6325 13.3918 3.26529 12.1749 3.05502C12.1639 3.05297 12.1524 3.05445 12.1423 3.05926C12.1321 3.06407 12.1237 3.07196 12.1183 3.08182C11.957 3.37455 11.8106 3.67523 11.6796 3.98271C10.3679 3.7836 9.03369 3.7836 7.72199 3.98271C7.59014 3.67445 7.44139 3.37369 7.2764 3.08182C7.27074 3.07218 7.26231 3.06447 7.2522 3.05969C7.2421 3.05491 7.23079 3.05328 7.21975 3.05502C6.00277 3.26485 4.81825 3.63209 3.69601 4.14749C3.6864 4.15157 3.6783 4.15852 3.67281 4.1674C1.42855 7.51891 0.813758 10.788 1.11535 14.0166C1.1162 14.0246 1.11863 14.0322 1.1225 14.0392C1.12637 14.0461 1.1316 14.0522 1.13787 14.0571C2.44469 15.0247 3.90638 15.7633 5.46056 16.2413C5.4715 16.2446 5.48319 16.2445 5.49405 16.2409C5.50491 16.2373 5.51442 16.2305 5.5213 16.2214C5.8551 15.7672 6.15088 15.2863 6.40562 14.7835C6.40912 14.7766 6.41112 14.769 6.41148 14.7613C6.41185 14.7535 6.41057 14.7458 6.40774 14.7386C6.4049 14.7314 6.40057 14.7249 6.39504 14.7195C6.3895 14.7141 6.38288 14.7099 6.37562 14.7073C5.9092 14.5288 5.45765 14.3137 5.02521 14.0639C5.01736 14.0593 5.01076 14.0528 5.00601 14.045C5.00125 14.0373 4.99848 14.0284 4.99794 14.0193C4.9974 14.0102 4.99911 14.0011 5.00292 13.9929C5.00673 13.9846 5.01251 13.9774 5.01977 13.9719C5.11051 13.9039 5.2013 13.8332 5.28795 13.7617C5.29564 13.7554 5.30496 13.7513 5.31484 13.75C5.32473 13.7487 5.33478 13.7501 5.34389 13.7542C8.17697 15.0472 11.2442 15.0472 14.0437 13.7542C14.0528 13.7499 14.063 13.7482 14.073 13.7494C14.0831 13.7506 14.0925 13.7547 14.1004 13.7611C14.187 13.8325 14.2778 13.9039 14.3692 13.9719C14.3765 13.9773 14.3824 13.9845 14.3862 13.9927C14.3901 14.001 14.3919 14.0101 14.3914 14.0192C14.3909 14.0282 14.3882 14.0371 14.3835 14.0449C14.3788 14.0527 14.3723 14.0592 14.3645 14.0639C13.933 14.3158 13.481 14.5308 13.0134 14.7066C13.0061 14.7094 12.9995 14.7136 12.994 14.7191C12.9885 14.7246 12.9843 14.7312 12.9815 14.7384C12.9787 14.7457 12.9775 14.7535 12.9779 14.7612C12.9783 14.769 12.9804 14.7766 12.984 14.7835C13.243 15.2835 13.5383 15.7638 13.8676 16.2206C13.8743 16.23 13.8837 16.237 13.8946 16.2407C13.9055 16.2444 13.9173 16.2446 13.9283 16.2412C15.4853 15.7648 16.9496 15.0262 18.258 14.0571C18.2644 14.0525 18.2697 14.0465 18.2736 14.0397C18.2774 14.0328 18.2798 14.0252 18.2805 14.0173C18.6416 10.2847 17.676 7.04238 15.7211 4.16807ZM6.82872 12.0507C5.97575 12.0507 5.27293 11.268 5.27293 10.3067C5.27293 9.34537 5.96212 8.56257 6.82872 8.56257C7.70209 8.56257 8.3981 9.35218 8.38447 10.3066C8.38447 11.268 7.69525 12.0507 6.82872 12.0507ZM12.5809 12.0507C11.728 12.0507 11.0252 11.268 11.0252 10.3067C11.0252 9.34537 11.7143 8.56257 12.5809 8.56257C13.4543 8.56257 14.1503 9.35218 14.1367 10.3066C14.1367 11.268 13.4543 12.0507 12.5809 12.0507Z" fill="white"/>
</svg>
